<?xml version="1.0" encoding="utf-8"?>
<!-- Generator: Adobe Illustrator 22.1.0, SVG Export Plug-In . SVG Version: 6.00 Build 0)  -->
<svg version="1.1" id="Layer_1" xmlns="http://www.w3.org/2000/svg" xmlns:xlink="http://www.w3.org/1999/xlink" x="0px" y="0px"
	 viewBox="0 0 512 512" style="enable-background:new 0 0 512 512;" xml:space="preserve">
<style type="text/css">
	.st0{fill:#B39A7C;}
	.st1{fill:#957856;}
	.st2{fill:#806749;}
	.st3{fill:#6A563D;}
	.st4{fill:#3E3D42;}
	.st5{fill:#EBE5DD;}
</style>
<path class="st0" d="M280.8,435.7c0,29.5-5.2,53.4-11.6,53.4H41.5c-6.4,0-11.6-23.9-11.6-53.4s5.2-53.4,11.6-53.4h227.7
	C275.6,382.3,280.8,406.2,280.8,435.7z"/>
<path class="st0" d="M211.1,435.8c0,29.4,24,53.4,53.4,53.4h67.6c2.1,0,62.3-2.5,93.3-23.7l-30.1-14l47.8-20.9
	c-7-46.2-108.3-48.3-111.1-48.3h-67.6C235,382.3,210.9,406.3,211.1,435.8z"/>
<path class="st1" d="M213.1,421.5c-1.3,4.6-2,9.3-2,14.3c0,29.4,24,53.4,53.4,53.4h67.6c2.1,0,62.3-2.5,93.3-23.7l-30.1-14
	c-14.3,8.3-63.3,9.1-63.3,9.1h-67.6C239.9,460.6,219.2,443.9,213.1,421.5z"/>
<path class="st2" d="M313.5,442.4c2.9,12.4-15.7,27.5-28.2,30.4s-25-4.8-27.9-17.3s4.8-25,17.3-27.9S310.6,429.9,313.5,442.4z"/>
<g>
	<path class="st3" d="M257.8,457.1c3.6,11.5,15.5,18.5,27.5,15.7c12.5-2.9,31.1-17.9,28.2-30.4c-1.3-5.4-6.3-9.4-12.6-12
		c0.3,11.9-16.8,25.3-28.5,28C267.3,459.6,262.3,459,257.8,457.1z"/>
	<path class="st3" d="M388.1,454.7c-1.6-4,0-8.6,4-10.3l47.8-20.9c3.9-1.8,8.6,0,10.3,4c1.8,3.9,0,8.6-4,10.3l-47.8,20.9
		C397.4,459.1,390.2,460.1,388.1,454.7z"/>
</g>
<path class="st4" d="M374.2,423c-1.7-1.7-2.7-4.1-2.7-6.5s1-4.8,2.7-6.5s4.1-2.7,6.5-2.7s4.8,1,6.5,2.7s2.7,4.1,2.7,6.5
	s-1,4.8-2.7,6.5s-4.1,2.7-6.5,2.7C378.2,425.7,375.9,424.7,374.2,423z"/>
<path class="st0" d="M84.2,54c29.5,0,53.5,8.3,53.5,18.7l0.2,366.7c0,10.4-23.9,18.8-53.4,18.8S31,449.9,31,439.5L30.8,72.8
	C30.8,62.4,54.7,54,84.2,54z"/>
<g>
	<path class="st1" d="M101.6,338.3c-0.7-0.7-1.1-1.6-1.1-2.6s0.4-1.9,1.1-2.6s1.6-1.1,2.6-1.1s1.9,0.4,2.6,1.1s1.1,1.6,1.1,2.6
		s-0.4,1.9-1.1,2.6s-1.6,1.1-2.6,1.1S102.3,339,101.6,338.3z"/>
	<path class="st1" d="M84.9,342c-0.7-0.7-1.1-1.6-1.1-2.6s0.4-1.9,1.1-2.6s1.6-1.1,2.6-1.1s1.9,0.4,2.6,1.1s1.1,1.6,1.1,2.6
		s-0.4,1.9-1.1,2.6s-1.6,1.1-2.6,1.1S85.6,342.7,84.9,342z"/>
	<path class="st1" d="M66.8,342c-0.7-0.7-1.1-1.6-1.1-2.6s0.4-1.9,1.1-2.6s1.6-1.1,2.6-1.1s1.9,0.4,2.6,1.1s1.1,1.6,1.1,2.6
		s-0.4,1.9-1.1,2.6s-1.6,1.1-2.6,1.1C68.5,343.1,67.5,342.7,66.8,342z"/>
	<path class="st1" d="M101.6,434.8c-0.7-0.7-1.1-1.6-1.1-2.6s0.4-1.9,1.1-2.6s1.6-1.1,2.6-1.1s1.9,0.4,2.6,1.1s1.1,1.6,1.1,2.6
		s-0.4,1.9-1.1,2.6s-1.6,1.1-2.6,1.1S102.3,435.5,101.6,434.8z"/>
	<path class="st1" d="M84.9,438.5c-0.7-0.7-1.1-1.6-1.1-2.6s0.4-1.9,1.1-2.6s1.6-1.1,2.6-1.1s1.9,0.4,2.6,1.1s1.1,1.6,1.1,2.6
		s-0.4,1.9-1.1,2.6s-1.6,1.1-2.6,1.1S85.6,439.2,84.9,438.5z"/>
	<path class="st1" d="M176.9,453.8c-0.7-0.7-1.1-1.6-1.1-2.6s0.4-1.9,1.1-2.6s1.6-1.1,2.6-1.1s1.9,0.4,2.6,1.1s1.1,1.6,1.1,2.6
		s-0.4,1.9-1.1,2.6s-1.6,1.1-2.6,1.1S177.5,454.5,176.9,453.8z"/>
	<path class="st1" d="M176.9,466.8c-0.7-0.7-1.1-1.6-1.1-2.6s0.4-1.9,1.1-2.6s1.6-1.1,2.6-1.1s1.9,0.4,2.6,1.1s1.1,1.6,1.1,2.6
		s-0.4,1.9-1.1,2.6s-1.6,1.1-2.6,1.1S177.5,467.5,176.9,466.8z"/>
	<path class="st1" d="M36.7,390.5c-0.7-0.7-1.1-1.6-1.1-2.6s0.4-1.9,1.1-2.6s1.6-1.1,2.6-1.1s1.9,0.4,2.6,1.1s1.1,1.6,1.1,2.6
		s-0.4,1.9-1.1,2.6s-1.6,1.1-2.6,1.1S37.4,391.2,36.7,390.5z"/>
	<path class="st1" d="M40.4,407.8c-0.7-0.7-1.1-1.6-1.1-2.6s0.4-1.9,1.1-2.6s1.6-1.1,2.6-1.1s1.9,0.4,2.6,1.1s1.1,1.6,1.1,2.6
		s-0.4,1.9-1.1,2.6s-1.6,1.1-2.6,1.1S41.1,408.5,40.4,407.8z"/>
	<path class="st1" d="M117.8,438.5c-0.7-0.7-1.1-1.6-1.1-2.6s0.4-1.9,1.1-2.6s1.6-1.1,2.6-1.1s1.9,0.4,2.6,1.1s1.1,1.6,1.1,2.6
		s-0.4,1.9-1.1,2.6s-1.6,1.1-2.6,1.1C119.5,439.6,118.5,439.2,117.8,438.5z"/>
</g>
<g>
	<path class="st1" d="M126.9,263.2c0.5-0.4,1.1-0.7,1.8-0.7s1.3,0.2,1.8,0.7c0.4,0.5,0.7,1.1,0.7,1.8c0,0.7-0.2,1.3-0.7,1.8
		c-0.5,0.4-1.1,0.7-1.8,0.7s-1.3-0.2-1.8-0.7c-0.4-0.5-0.7-1.1-0.7-1.8C126.2,264.4,126.5,263.7,126.9,263.2z"/>
	<path class="st1" d="M124.3,251.7c0.5-0.4,1.1-0.7,1.8-0.7c0.7,0,1.3,0.2,1.8,0.7c0.4,0.5,0.7,1.1,0.7,1.8s-0.2,1.3-0.7,1.8
		c-0.5,0.4-1.1,0.7-1.8,0.7c-0.7,0-1.3-0.2-1.8-0.7c-0.4-0.5-0.7-1.1-0.7-1.8S123.9,252.2,124.3,251.7z"/>
	<path class="st1" d="M124.3,239.2c0.5-0.4,1.1-0.7,1.8-0.7c0.7,0,1.3,0.2,1.8,0.7c0.4,0.5,0.7,1.1,0.7,1.8s-0.2,1.3-0.7,1.8
		c-0.5,0.4-1.1,0.7-1.8,0.7c-0.7,0-1.3-0.2-1.8-0.7c-0.4-0.5-0.7-1.1-0.7-1.8S123.9,239.7,124.3,239.2z"/>
	<path class="st1" d="M60.2,263.2c0.5-0.4,1.1-0.7,1.8-0.7s1.3,0.2,1.8,0.7c0.4,0.5,0.7,1.1,0.7,1.8c0,0.7-0.2,1.3-0.7,1.8
		c-0.5,0.4-1.1,0.7-1.8,0.7s-1.3-0.2-1.8-0.7c-0.4-0.5-0.7-1.1-0.7-1.8C59.5,264.4,59.7,263.7,60.2,263.2z"/>
	<path class="st1" d="M57.6,251.7c0.5-0.4,1.1-0.7,1.8-0.7s1.3,0.2,1.8,0.7c0.4,0.5,0.7,1.1,0.7,1.8s-0.2,1.3-0.7,1.8
		c-0.5,0.4-1.1,0.7-1.8,0.7s-1.3-0.2-1.8-0.7c-0.4-0.5-0.7-1.1-0.7-1.8S57.2,252.2,57.6,251.7z"/>
	<path class="st1" d="M47,315.3c0.5-0.4,1.1-0.7,1.8-0.7s1.3,0.2,1.8,0.7c0.4,0.5,0.7,1.1,0.7,1.8c0,0.7-0.2,1.3-0.7,1.8
		c-0.5,0.4-1.1,0.7-1.8,0.7s-1.3-0.2-1.8-0.7c-0.4-0.5-0.7-1.1-0.7-1.8S46.6,315.7,47,315.3z"/>
	<path class="st1" d="M38.1,315.3c0.5-0.4,1.1-0.7,1.8-0.7s1.3,0.2,1.8,0.7c0.4,0.5,0.7,1.1,0.7,1.8c0,0.7-0.2,1.3-0.7,1.8
		c-0.5,0.4-1.1,0.7-1.8,0.7s-1.3-0.2-1.8-0.7c-0.4-0.5-0.7-1.1-0.7-1.8S37.6,315.7,38.1,315.3z"/>
	<path class="st1" d="M90.8,218.4c0.5-0.4,1.1-0.7,1.8-0.7c0.7,0,1.3,0.2,1.8,0.7c0.4,0.5,0.7,1.1,0.7,1.8s-0.2,1.3-0.7,1.8
		c-0.5,0.4-1.1,0.7-1.8,0.7c-0.7,0-1.3-0.2-1.8-0.7c-0.4-0.5-0.7-1.1-0.7-1.8S90.3,218.8,90.8,218.4z"/>
	<path class="st1" d="M78.8,220.9c0.5-0.4,1.1-0.7,1.8-0.7s1.3,0.2,1.8,0.7c0.4,0.5,0.7,1.1,0.7,1.8s-0.2,1.3-0.7,1.8
		c-0.5,0.4-1.1,0.7-1.8,0.7c-0.7,0-1.3-0.2-1.8-0.7c-0.4-0.5-0.7-1.1-0.7-1.8S78.4,221.4,78.8,220.9z"/>
	<path class="st1" d="M57.6,274.4c0.5-0.4,1.1-0.7,1.8-0.7s1.3,0.2,1.8,0.7c0.4,0.5,0.7,1.1,0.7,1.8c0,0.7-0.2,1.3-0.7,1.8
		c-0.5,0.4-1.1,0.7-1.8,0.7s-1.3-0.2-1.8-0.7c-0.4-0.5-0.7-1.1-0.7-1.8C56.9,275.6,57.2,274.9,57.6,274.4z"/>
</g>
<g>
	<path class="st1" d="M126.9,127.7c0.5-0.4,1.1-0.7,1.8-0.7s1.3,0.2,1.8,0.7c0.4,0.5,0.7,1.1,0.7,1.8s-0.2,1.3-0.7,1.8
		c-0.5,0.4-1.1,0.7-1.8,0.7s-1.3-0.2-1.8-0.7c-0.4-0.5-0.7-1.1-0.7-1.8S126.5,128.1,126.9,127.7z"/>
	<path class="st1" d="M124.3,116.1c0.5-0.4,1.1-0.7,1.8-0.7c0.7,0,1.3,0.2,1.8,0.7c0.4,0.5,0.7,1.1,0.7,1.8c0,0.7-0.2,1.3-0.7,1.8
		c-0.5,0.4-1.1,0.7-1.8,0.7c-0.7,0-1.3-0.2-1.8-0.7c-0.4-0.5-0.7-1.1-0.7-1.8C123.6,117.2,123.9,116.6,124.3,116.1z"/>
	<path class="st1" d="M124.3,103.6c0.5-0.4,1.1-0.7,1.8-0.7c0.7,0,1.3,0.2,1.8,0.7c0.4,0.5,0.7,1.1,0.7,1.8c0,0.7-0.2,1.3-0.7,1.8
		c-0.5,0.4-1.1,0.7-1.8,0.7c-0.7,0-1.3-0.2-1.8-0.7c-0.4-0.5-0.7-1.1-0.7-1.8C123.6,104.7,123.9,104.1,124.3,103.6z"/>
	<path class="st1" d="M60.2,127.7c0.5-0.4,1.1-0.7,1.8-0.7s1.3,0.2,1.8,0.7c0.4,0.5,0.7,1.1,0.7,1.8s-0.2,1.3-0.7,1.8
		c-0.5,0.4-1.1,0.7-1.8,0.7s-1.3-0.2-1.8-0.7c-0.4-0.5-0.7-1.1-0.7-1.8S59.7,128.1,60.2,127.7z"/>
	<path class="st1" d="M57.6,116.1c0.5-0.4,1.1-0.7,1.8-0.7s1.3,0.2,1.8,0.7c0.4,0.5,0.7,1.1,0.7,1.8c0,0.7-0.2,1.3-0.7,1.8
		c-0.5,0.4-1.1,0.7-1.8,0.7s-1.3-0.2-1.8-0.7c-0.4-0.5-0.7-1.1-0.7-1.8C56.9,117.2,57.2,116.6,57.6,116.1z"/>
	<path class="st1" d="M47,179.7c0.5-0.4,1.1-0.7,1.8-0.7s1.3,0.2,1.8,0.7c0.4,0.5,0.7,1.1,0.7,1.8s-0.2,1.3-0.7,1.8
		c-0.5,0.4-1.1,0.7-1.8,0.7s-1.3-0.2-1.8-0.7c-0.4-0.5-0.7-1.1-0.7-1.8S46.6,180.2,47,179.7z"/>
	<path class="st1" d="M38.1,179.7c0.5-0.4,1.1-0.7,1.8-0.7s1.3,0.2,1.8,0.7c0.4,0.5,0.7,1.1,0.7,1.8s-0.2,1.3-0.7,1.8
		c-0.5,0.4-1.1,0.7-1.8,0.7s-1.3-0.2-1.8-0.7c-0.4-0.5-0.7-1.1-0.7-1.8S37.6,180.2,38.1,179.7z"/>
	<path class="st1" d="M90.8,82.8c0.5-0.4,1.1-0.7,1.8-0.7c0.7,0,1.3,0.2,1.8,0.7c0.4,0.5,0.7,1.1,0.7,1.8c0,0.7-0.2,1.3-0.7,1.8
		c-0.5,0.4-1.1,0.7-1.8,0.7c-0.7,0-1.3-0.2-1.8-0.7c-0.4-0.5-0.7-1.1-0.7-1.8S90.3,83.3,90.8,82.8z"/>
	<path class="st1" d="M78.8,85.3c0.5-0.4,1.1-0.7,1.8-0.7s1.3,0.2,1.8,0.7c0.4,0.5,0.7,1.1,0.7,1.8c0,0.7-0.2,1.3-0.7,1.8
		c-0.5,0.4-1.1,0.7-1.8,0.7c-0.7,0-1.3-0.2-1.8-0.7c-0.4-0.5-0.7-1.1-0.7-1.8C78.1,86.5,78.4,85.8,78.8,85.3z"/>
	<path class="st1" d="M57.6,138.9c0.5-0.4,1.1-0.7,1.8-0.7s1.3,0.2,1.8,0.7c0.4,0.5,0.7,1.1,0.7,1.8s-0.2,1.3-0.7,1.8
		c-0.5,0.4-1.1,0.7-1.8,0.7s-1.3-0.2-1.8-0.7c-0.4-0.5-0.7-1.1-0.7-1.8S57.2,139.3,57.6,138.9z"/>
</g>
<path class="st1" d="M124,60.4c7.8,0,14.2,7,14.2,15.6l0.2,304.5c0,8.6-6.3,15.6-14.2,15.6c-7.8,0-14.2-7-14.2-15.6L109.8,76
	C109.7,67.4,116.1,60.4,124,60.4z"/>
<path class="st5" d="M191.3,492.2c0,1.5,0.4,2.9,0.9,4.2c1.6-3.8,5.4-6.5,9.8-6.5h44.6c8.1,0,14.6-6.5,14.6-14.6
	c0-1.5-0.2-2.9-0.6-4.2c-1.8,6-7.4,10.4-14,10.4H202C196.1,481.5,191.4,486.3,191.3,492.2z"/>
</svg>
