<?xml version="1.0" encoding="utf-8"?>
<!-- Generator: Adobe Illustrator 22.1.0, SVG Export Plug-In . SVG Version: 6.00 Build 0)  -->
<svg version="1.1" id="Layer_1" xmlns="http://www.w3.org/2000/svg" xmlns:xlink="http://www.w3.org/1999/xlink" x="0px" y="0px"
	 viewBox="0 0 512 512" style="enable-background:new 0 0 512 512;" xml:space="preserve">
<style type="text/css">
	.st0{fill:#554431;}
	.st1{fill:#6A563D;}
</style>
<path class="st0" d="M419.3,482.1l-28.2-17.7c-3.7-2.3-4.7-7.2-2.5-10.8s7.2-4.7,10.8-2.5l28.2,17.7c3.7,2.3,4.7,7.2,2.5,10.8
	C426.9,484.9,420.3,482.7,419.3,482.1z"/>
<g>
	<path class="st1" d="M388.1,454.7c-1.6-4,0-8.6,4-10.3l47.8-20.9c3.9-1.8,8.6,0,10.3,4c1.8,3.9,0,8.6-4,10.3l-47.8,20.9
		C397.4,459.1,390.2,460.1,388.1,454.7z"/>
</g>
</svg>
