<?xml version="1.0" encoding="utf-8"?>
<!-- Generator: Adobe Illustrator 22.1.0, SVG Export Plug-In . SVG Version: 6.00 Build 0)  -->
<svg version="1.1" id="Capa_1" xmlns="http://www.w3.org/2000/svg" xmlns:xlink="http://www.w3.org/1999/xlink" x="0px" y="0px"
	 viewBox="0 0 512 512" style="enable-background:new 0 0 512 512;" xml:space="preserve">
<style type="text/css">
	.st0{fill:#FEDBAB;}
	.st1{fill:#FEC478;}
	.st2{fill:#E4741B;}
	.st3{fill:#994C10;}
	.st4{fill:#FF941D;}
	.st5{fill:#BF6015;}
	.st6{fill:#FFAC46;}
	.st7{fill:#7A3303;}
	.st8{fill:#843500;}
	.st9{fill:#57555C;}
	.st10{fill:#3C3A41;}
</style>
<path class="st0" d="M357.7,420.1C337.6,457.6,298.6,481,256,481s-81.6-23.4-101.7-60.9l24.9-47.1h153.6L357.7,420.1z"/>
<path class="st1" d="M357.7,420.1C337.6,457.6,298.6,481,256,481V373h76.8L357.7,420.1z"/>
<circle class="st2" cx="437" cy="106" r="75"/>
<path class="st3" d="M437,151c-24.8,0-45-20.2-45-45s20.2-45,45-45s45,20.2,45,45S461.8,151,437,151z"/>
<circle class="st4" cx="75" cy="106" r="75"/>
<path class="st5" d="M75,151c-24.8,0-45-20.2-45-45s20.2-45,45-45s45,20.2,45,45S99.8,151,75,151z"/>
<path class="st6" d="M481,226L358,403.6L256,376l-90,30L31,226C31,116.2,151.9,31,256,31S481,116.2,481,226z"/>
<path class="st4" d="M481,226L358,403.6L256,376V31C360.1,31,481,116.2,481,226z"/>
<path class="st7" d="M425.5,144.1c-31.5-21-67.5-25.5-98.4-12.9C293.5,145,271,177.1,271,211c0,26.4,11.7,51.3,31.8,68.4
	c0.3,0.3,0.3,0.6,0.6,0.6l44.7,37.5c11.7,9.9,18,24.3,17.1,39.9c-0.9,13.2-7.2,25.2-17.1,33.6l-87.3-29.1c-1.5-0.6-3-0.9-4.8-0.9
	s-3.3,0.3-4.8,0.9L163.9,391c-10.2-8.4-16.2-20.4-17.1-33.9c-0.9-15.6,5.4-30.3,17.4-40.2l44.1-36.6C229,263.2,241,238,241,211
	c0-33.9-22.5-66-56.1-79.8c-31.2-12.9-66.9-8.1-98.4,12.9C52.3,167.2,31,204.1,31,241c0,46.2,32.1,89.7,85.8,117.9c0,0,0,0,0,0.3
	c1.8,25.2,15,47.4,36.6,61.2c2.4,1.5,5.1,2.1,7.8,2.1c1.8,0,3.3-0.3,4.8-0.6l90-30l90,30c4.2,1.5,9,0.9,12.6-1.5
	c21.6-13.5,34.8-35.7,36.3-60.9c0-0.3,0-0.3,0-0.6c54-28.2,86.1-71.7,86.1-117.9C481,204.4,459.7,167.2,425.5,144.1z"/>
<path class="st8" d="M481,241c0,46.2-32.1,89.7-86.1,117.9c0,0.3,0,0.3,0,0.6c-1.5,25.2-14.7,47.4-36.3,60.9
	c-3.6,2.4-8.4,3-12.6,1.5l-90-30V361c1.8,0,3.3,0.3,4.8,0.9l87.3,29.1c9.9-8.4,16.2-20.4,17.1-33.6c0.9-15.6-5.4-30-17.1-39.9
	L303.4,280c-0.3,0-0.3-0.3-0.6-0.6c-20.1-17.1-31.8-42-31.8-68.4c0-33.9,22.5-66,56.1-79.8c30.9-12.6,66.9-8.1,98.4,12.9
	C459.7,167.2,481,204.4,481,241z"/>
<path class="st9" d="M292.6,344.5L271,355.3V376c0,8.4-6.6,15-15,15s-15-6.6-15-15v-20.7l-21.6-10.8c-7.5-3.9-10.5-12.9-6.9-20.1
	c3.9-7.5,12.9-10.5,20.1-6.9l23.4,11.7l23.4-11.7c7.2-3.6,16.2-0.6,20.1,6.9C303.1,331.6,300.1,340.6,292.6,344.5z"/>
<path class="st10" d="M292.6,344.5L271,355.3V376c0,8.4-6.6,15-15,15v-61.8l23.4-11.7c7.2-3.6,16.2-0.6,20.1,6.9
	C303.1,331.6,300.1,340.6,292.6,344.5z"/>
<path class="st0" d="M61,241c0-26.5,16.6-54.7,42.2-71.9c23-15.4,48.6-19.1,70.3-10.2C195.6,168,211,189.4,211,211
	c0,18-7.9,34.8-21.8,46.3l0,0l-44,36.4c-11.1,9.2-18.8,20.9-23.5,33.9C83.4,304.9,61,273.4,61,241z"/>
<path class="st1" d="M390.2,327.6c-4.6-12.6-12.1-24.1-22.9-33.1l-44.5-37.2C308.9,245.8,301,228.9,301,211
	c0-21.6,15.4-43,37.5-52.1c21.7-8.9,47.3-5.2,70.2,10.2c25.7,17.2,42.3,45.4,42.3,71.8C451,273.5,428.6,304.9,390.2,327.6z"/>
<circle class="st9" cx="166" cy="226" r="15"/>
<circle class="st10" cx="346" cy="226" r="15"/>
<circle class="st9" cx="226" cy="106" r="15"/>
<circle class="st10" cx="286" cy="106" r="15"/>
</svg>
