<?xml version="1.0" encoding="utf-8"?>
<!-- Generator: Adobe Illustrator 22.1.0, SVG Export Plug-In . SVG Version: 6.00 Build 0)  -->
<svg version="1.1" id="Layer_1" xmlns="http://www.w3.org/2000/svg" xmlns:xlink="http://www.w3.org/1999/xlink" x="0px" y="0px"
	 viewBox="0 0 512 512" style="enable-background:new 0 0 512 512;" xml:space="preserve">
<style type="text/css">
	.st0{fill:#BDBDBF;}
	.st1{fill:#333333;}
</style>
<path class="st0" d="M484.5,278.9L484.5,278.9L484.5,278.9 M484.7,278.7C484.6,278.8,484.6,278.8,484.7,278.7
	C484.6,278.8,484.6,278.7,484.7,278.7 M484.8,278.6L484.8,278.6L484.8,278.6 M485,278.5C485,278.5,484.9,278.5,485,278.5
	C484.9,278.5,485,278.5,485,278.5 M485.1,278.3C485.1,278.3,485.1,278.4,485.1,278.3C485.1,278.4,485.1,278.3,485.1,278.3
	 M485.3,278.2l-0.1,0.1C485.3,278.2,485.3,278.2,485.3,278.2 M485.5,278c-0.1,0-0.1,0.1-0.2,0.1C485.4,278.1,485.5,278,485.5,278
	 M511.9,224.3C511.9,224.3,511.8,224.3,511.9,224.3L511.9,224.3 M511.9,224.1L511.9,224.1L511.9,224.1 M511.9,223.8
	C511.9,223.9,511.9,223.9,511.9,223.8C511.9,223.9,511.9,223.9,511.9,223.8 M511.9,223.6L511.9,223.6L511.9,223.6"/>
<ellipse class="st1" cx="259.3" cy="394.6" rx="65.7" ry="20.5"/>
</svg>
