<?xml version="1.0" encoding="utf-8"?>
<!-- Generator: Adobe Illustrator 22.1.0, SVG Export Plug-In . SVG Version: 6.00 Build 0)  -->
<svg version="1.1" id="Layer_1" xmlns="http://www.w3.org/2000/svg" xmlns:xlink="http://www.w3.org/1999/xlink" x="0px" y="0px"
	 viewBox="0 0 512 512" style="enable-background:new 0 0 512 512;" xml:space="preserve">
<style type="text/css">
	.st0{fill:#965500;}
	.st1{fill:#D37B93;}
	.st2{fill:#703F00;}
	.st3{fill:#9D5B6E;}
	.st4{fill:#EFC589;}
	.st5{fill:#333333;}
	.st6{fill:#BDBDBF;}
	.st7{fill:#B19267;}
</style>
<path class="st0" d="M94,173.2l-21.3-31.3C30,144.7-2.6,181.7,0.2,224.5c1.3,20.7,10.7,39.7,26.3,53.4
	c14.3,12.6,32.3,19.3,51.2,19.3c1.7,0,3.4-0.1,5.1-0.2L94,264.8V173.2z"/>
<path class="st1" d="M80.8,265.9c-12.4,0.8-24.3-3.3-33.7-11.5c-9.3-8.2-14.9-19.5-15.7-31.9c-1.7-25.6,17.8-47.7,43.3-49.4
	L80.8,265.9z"/>
<path class="st2" d="M418,173.2l21.3-31.3c42.8,2.8,75.4,39.9,72.6,82.7c-1.3,20.7-10.7,39.7-26.3,53.4
	c-14.3,12.6-32.3,19.3-51.2,19.3c-1.7,0-3.4-0.1-5.1-0.2L418,264.8V173.2"/>
<path class="st3" d="M431.2,265.9c12.4,0.8,24.3-3.3,33.7-11.5c9.3-8.2,14.9-19.5,15.7-31.9c1.7-25.6-17.8-47.7-43.3-49.4
	L431.2,265.9"/>
<path class="st0" d="M173.7,396.5c-74-32.6-121.8-106-121.8-186.8C51.9,97.2,143.5,5.6,256,5.6s204.1,91.6,204.1,204.1
	c0,80.9-47.8,154.2-121.8,186.8H173.7"/>
<path class="st4" d="M256,440.4c-57.8,0-104.8-47-104.8-104.8c0-10,1.4-19.8,4.1-29.2C119.3,293.3,94,258.6,94,219
	c0-51.2,41.7-92.9,92.9-92.9c26.9,0,51.7,11.3,69,30.7c17.3-19.3,42.2-30.7,69-30.7c51.2,0,92.9,41.7,92.9,92.9
	c0,39.6-25.3,74.3-61.3,87.4c2.7,9.4,4.1,19.2,4.1,29.2C360.8,393.4,313.8,440.4,256,440.4"/>
<g>
	<path class="st5" d="M206.9,345.5c0-9.1,7.3-16.4,16.2-16.4s16.2,7.3,16.2,16.4s-7.3,16.4-16.2,16.4
		C214.1,361.9,206.9,354.6,206.9,345.5z"/>
	<path class="st5" d="M173,220.8c0-11.5,9.2-20.8,20.6-20.8c11.4,0,20.6,9.3,20.6,20.8s-9.2,20.8-20.6,20.8S173,232.3,173,220.8z"/>
	<path class="st5" d="M339,220.8c0-11.6-9.3-21-20.7-21c-11.5,0-20.7,9.4-20.7,21s9.3,21,20.7,21S339,232.4,339,220.8"/>
</g>
<path class="st6" d="M484.5,278.9L484.5,278.9L484.5,278.9 M484.7,278.7C484.6,278.8,484.6,278.8,484.7,278.7
	C484.6,278.8,484.6,278.7,484.7,278.7 M484.8,278.6L484.8,278.6L484.8,278.6 M485,278.5C485,278.5,484.9,278.5,485,278.5
	C484.9,278.5,485,278.5,485,278.5 M485.1,278.3C485.1,278.3,485.1,278.4,485.1,278.3C485.1,278.4,485.1,278.3,485.1,278.3
	 M485.3,278.2l-0.1,0.1C485.3,278.2,485.3,278.2,485.3,278.2 M485.5,278c-0.1,0-0.1,0.1-0.2,0.1C485.4,278.1,485.5,278,485.5,278
	 M511.9,224.3C511.9,224.3,511.8,224.3,511.9,224.3L511.9,224.3 M511.9,224.1L511.9,224.1L511.9,224.1 M511.9,223.8
	C511.9,223.9,511.9,223.9,511.9,223.8C511.9,223.9,511.9,223.9,511.9,223.8 M511.9,223.6L511.9,223.6L511.9,223.6"/>
<path class="st2" d="M256.5,5.6v150.6c17.3-19,41.9-30.1,68.5-30.1c51.2,0,92.9,41.7,92.9,92.9c0,39.6-25.3,74.3-61.3,87.4
	c2.7,9.4,4.1,19.2,4.1,29.2c0,21.9-6.7,42.2-18.2,59c43.8-20.5,77.9-55.4,97.9-97.5l0,0c5.3-11.3,9.7-23,12.9-35.2
	c4.4-16.8,6.8-34.3,6.8-52.2c0-10.2-0.8-20.3-2.2-30.1c-1.9-12.5-4.9-24.7-8.9-36.4l0,0C421.3,63.3,345.5,5.8,256.5,5.6"/>
<path class="st7" d="M288.8,362.1c-9,0-16.3-7.4-16.3-16.5s7.3-16.5,16.3-16.5s16.3,7.4,16.3,16.5
	C305.1,354.7,297.8,362.1,288.8,362.1 M318.3,241.8c-11.5,0-20.7-9.4-20.7-21s9.3-21,20.7-21c11.4,0,20.7,9.4,20.7,21
	S329.7,241.8,318.3,241.8 M325,126.1c-26.6,0-51.2,11.1-68.5,30.1v284.2c35.7-0.2,67.2-18.3,86-45.8l0,0
	c11.5-16.8,18.2-37.1,18.2-59c0-10-1.4-19.8-4.1-29.2c36-13.1,61.3-47.8,61.3-87.4C418,167.8,376.3,126.1,325,126.1"/>
<path class="st5" d="M288.8,329c-9,0-16.3,7.4-16.3,16.5s7.3,16.5,16.3,16.5s16.3-7.4,16.3-16.5C305.1,336.4,297.8,329,288.8,329"/>
<path class="st2" d="M448.8,288.9l-2.4,207.7c-0.1,5.9-10,10.5-22.2,10.4s-22-5-22-10.9l2.4-207.7c0.1-5.9,10-10.5,22.2-10.4
	S448.8,283,448.8,288.9z"/>
<path class="st2" d="M427.1,510.5L74.2,511c-10,0-18.1-9.9-18.1-22.1s8-22.1,18-22.1l352.9-0.5c10,0,18.1,9.9,18.1,22.1
	S437.1,510.5,427.1,510.5z"/>
</svg>
