<?xml version="1.0" encoding="utf-8"?>
<!-- Generator: Adobe Illustrator 22.1.0, SVG Export Plug-In . SVG Version: 6.00 Build 0)  -->
<svg version="1.1" id="Layer_1" xmlns="http://www.w3.org/2000/svg" xmlns:xlink="http://www.w3.org/1999/xlink" x="0px" y="0px"
	 viewBox="0 0 512 512" style="enable-background:new 0 0 512 512;" xml:space="preserve">
<style type="text/css">
	.st0{fill:#A07D50;}
	.st1{fill:#896245;}
	.st2{fill:#77563F;}
	.st3{fill:#BA9E72;}
	.st4{fill:#8E6E4A;}
	.st5{fill:#826341;}
	.st6{fill:#E5D3AC;}
	.st7{fill:#D3B98D;}
	.st8{fill:#C6AE83;}
	.st9{fill:#75644C;}
	.st10{fill:#3A352E;}
</style>
<path class="st0" d="M460.4,174.4H289l0,0c-44.8,0-81.2-23.5-81.2-52.5l0,0v-17.5c0-6.4,8.2-11.7,18.1-11.7l0,0
	c28.6,0,52.7,12.3,60.5,29.2h129c35,0,63.2,18.3,63.2,40.9l0,0C478.6,169.3,470.5,174.5,460.4,174.4z"/>
<path class="st1" d="M91.2,176L91.2,176c49.9-46.6,115.7-72.5,184-72.5h13.5v403H136.1C63.9,506.5,5.4,448,5.4,375.8v-2.6
	C5.4,298.4,36.5,227,91.2,176z"/>
<path class="st2" d="M16.7,360.4c0-1.9,0.1-3.8,0.2-5.7c0-0.6,0.1-1.1,0.1-1.6c0.2-2.2,0.3-4.5,0.5-6.7c0-0.2,0-0.3,0-0.4
	c0.6-6.1,1.3-12.2,2.2-18.2h63.2c23.7,0,42.7-19.4,42.6-43.1c0-0.2,0-0.3,0-0.5v-32.7c0-23.9,19.2-43.5,43.1-43.6c0.2,0,0.5,0,0.7,0
	c7.3,0,11.2-8.5,6.3-13.9c-14.2-15.6-24-35.4-27.2-57.2c41.4-24.6,88.9-37.9,137.8-37.9h13.5v108.9v21.8v32.7v21.8v217.8H147.1
	c-72.2,0-130.7-58.5-130.7-130.7v-2.6C16.4,365.8,16.5,363,16.7,360.4z"/>
<path class="st3" d="M473.9,473.9c18.1,0,32.7,14.7,32.7,32.7l0,0h-54.5v-10.9C452.1,483.6,461.8,473.9,473.9,473.9z"/>
<path class="st0" d="M5.4,364.9l97.9-0.1c24.1,0,43.6,19.5,43.6,43.6h250.6c42.2,0,76.3,34.2,76.3,76.3l0,0c0,12-9.8,21.8-21.8,21.8
	H147h-10.9c-28,0-54-8.9-75.3-23.9c-13.9,14.7-33.6,23.9-55.4,23.9V375.8V364.9L5.4,364.9z"/>
<path class="st4" d="M5.4,463H204h171.1c26,0,45.3-24.6,38.7-49.7c-0.4-1.3-0.7-2.4-1.1-3.3c34.8,7.1,61.1,37.9,61.1,74.8l0,0
	c0,12-9.8,21.8-21.8,21.8H147h-10.9c-28,0-54-8.9-75.3-23.9l0,0c-13.9,14.7-33.6,23.9-55.4,23.9V463L5.4,463z"/>
<path class="st5" d="M60.8,482.6c-13.9,14.7-33.6,23.9-55.4,23.9V375.8C5.4,420,27.3,459,60.8,482.6z"/>
<path class="st3" d="M452.1,311v32.7h16.7c2.7,0,5,1.9,5.4,4.6c2.3,15.9,15.9,28.1,32.4,28.1v-32.7l0,0c0-18.1-14.7-32.7-32.7-32.7
	H452.1z"/>
<path class="st0" d="M452,343.6H245l0,0c-54.1,0-98-43.9-98-98l0,0v-32.7c0-12,9.8-21.8,21.8-21.8l0,0c34.6,0,63.7,23,73.1,54.5
	h155.7c42.2,0,76.3,34.2,76.3,76.3l0,0C473.9,334,464.1,343.7,452,343.6z"/>
<path class="st4" d="M452.1,343.6h-207l0,0c-41.9,0-77.7-26.3-91.7-63.3l0,0c16.4,12.4,36.8,19.8,59,19.8l0,0h207
	c12,0,21.8-9.8,21.8-21.8c0-7.2-1-14.2-2.9-20.9l0,0c21.4,13.5,35.6,37.3,35.6,64.5C473.9,334,464.1,343.7,452.1,343.6z"/>
<path class="st0" d="M288.7,5.5L288.7,5.5c66.2,0,119.8,53.6,119.8,119.8l0,0c0,48.1-39,87.1-87.1,87.1H256
	c-48.1,0-87.1-39-87.1-87.1l0,0C168.9,59.1,222.5,5.4,288.7,5.5z"/>
<path class="st6" d="M250.5,136.2h5.4c12.1,0,22-9.9,21.8-22.1c-0.1-5.9-5-10.6-10.9-10.6h-46.9c-3.8,0-6.4-3.8-5.1-7.4
	c5.5-14.9,19.8-25.6,36.4-25.3c20.7,0.4,37.4,17.3,37.4,38.1c0-21,17-38.1,38.1-38.1c16.5,0,30.7,10.6,35.9,25.4
	c1.3,3.6-1.3,7.3-5.1,7.3h-47.1c-5.9,0-10.8,4.7-10.9,10.6c-0.1,12.2,9.7,22.1,21.8,22.1h5.4c21,0,38.1,17,38.1,38.1l0,0
	c0,21-17,38.1-38.1,38.1h-38.1h-38.1c-21,0-38.1-17-38.1-38.1l0,0C212.4,153.2,229.5,136.2,250.5,136.2z"/>
<path class="st7" d="M277.8,147h21.8c18.1,0,32.7,14.7,32.7,32.7l0,0c0,18.1-14.6,32.7-32.7,32.7h-10.9h-10.9
	c-18.1,0-32.7-14.6-32.7-32.7l0,0C245.1,161.7,259.7,147.1,277.8,147z"/>
<path class="st3" d="M288.7,190.6l43.6-10.9c0,18.1-14.6,32.7-32.7,32.7h-10.9h-10.9c-18.1,0-32.7-14.6-32.7-32.7L288.7,190.6z"/>
<path class="st8" d="M332.3,179.7c0,18.1-14.6,32.7-32.7,32.7h-10.9v-21.8L332.3,179.7z"/>
<path class="st9" d="M277.8,147.1h21.8c3.8,0,7.4,0.6,10.8,1.8c-0.9,11.2-10.3,20-21.7,20s-20.8-8.8-21.7-20
	C270.4,147.7,274,147.1,277.8,147.1z"/>
<g>
	<path class="st10" d="M261.4,114.4c3,0,5.4,2.4,5.4,5.4s-2.4,5.4-5.4,5.4s-5.4-2.4-5.4-5.4S258.4,114.4,261.4,114.4z"/>
	<path class="st10" d="M310.5,119.8c0,3,2.4,5.4,5.4,5.4s5.4-2.4,5.4-5.4s-2.4-5.4-5.4-5.4S310.5,116.8,310.5,119.8z"/>
</g>
<path class="st4" d="M288.7,5.5c30.1,0,54.5,12.2,54.5,27.2s-24.4,27.2-54.5,27.2s-54.5-12.2-54.5-27.2
	C234.2,17.6,258.6,5.5,288.7,5.5z"/>
<path class="st3" d="M450.9,133.6v32.7h16.7c2.7,0,5,1.9,5.4,4.6c2.3,15.9,15.9,28.1,32.4,28.1v-32.7l0,0
	c0-18.1-14.7-32.7-32.7-32.7H450.9z"/>
</svg>
