<?xml version="1.0" encoding="utf-8"?>
<!-- Generator: Adobe Illustrator 22.1.0, SVG Export Plug-In . SVG Version: 6.00 Build 0)  -->
<svg version="1.1" id="Layer_1" xmlns="http://www.w3.org/2000/svg" xmlns:xlink="http://www.w3.org/1999/xlink" x="0px" y="0px"
	 viewBox="0 0 512 512" style="enable-background:new 0 0 512 512;" xml:space="preserve">
<style type="text/css">
	.st0{fill:#2C3E50;}
	.st1{fill:#35495E;}
	.st2{fill:#F0C419;}
	.st3{fill:#E57E25;}
	.st4{fill:#E6E7E8;}
	.st5{fill:#F29C1F;}
	.st6{fill:#2C2F38;}
</style>
<path class="st0" d="M472.6,361.9h-194c-8-9.6-19.4-15.8-31.8-17.3c22.6-16.6,36-43,36-71V105.9h25.6c-4.3-6.3-9.7-11.9-15.9-16.1
	c-0.1-0.1-0.2-0.1-0.2-0.2c-0.7-0.2-1.3-0.6-1.8-1.1L283,81c-1-1-1.4-2.3-1.4-3.5c-1.1-2.9,0.4-7,4.5-7h175.5c0.4,0,0.7,0,1.1,0.1
	h8.6c1.1,0.1,2.2-0.2,3.2-0.8c1.9-1.4,0.7-4.3-0.6-6.3c-11.1-15.7-31.2-25.5-48.2-33.4c-9.6-4.4-19.4-8.2-29.4-11.4h-0.1
	c-8.7-2.9-17.5-5.3-26.3-7.4C338.4,4.5,306.2,0.8,274,0.4C262.3,0.1,250.5,0,238.7,0h-2.9c-52.5,0.5-94.7,43.5-94.2,96v81.3
	c-30.4,4.3-53,30.4-53,61.1v119.4c10.5,14.4,9,34.2,0.1,50.2v91c0,7.3,5.9,13.2,13.2,13.2c36.6,0,66.2-29.6,66.2-66.2v-39.7h50.2
	c-1.9,8.8-7.6,16.3-15.6,20.5c-4.3,2.3-6,7.6-3.7,11.9s7.6,6,11.9,3.7c13.8-7.2,23.3-20.7,25.4-36.1h32.8c-2.8,6.1-7.6,11-13.5,14.1
	c-2.8,1.4-4.7,4.3-4.8,7.5c-0.1,3.2,1.4,6.2,4.1,7.9s6.1,1.8,8.9,0.3c11.8-6.2,20.5-17,24-29.8h184.8c12.2,0,22.1-9.9,22.1-22.1
	S484.8,361.9,472.6,361.9z M219.2,361.9c-1.1-1-2.4-1.8-3.7-2.6c2.1-0.5,4.1-1,6.2-1.7c0.1,0.5,0.2,1,0.4,1.5
	c0.6,1.1,1.5,2.1,2.6,2.8H219.2z"/>
<path class="st1" d="M277.4,57.4L274,70.6h-35.3c5.2-11,8.2-22.9,8.8-35v-0.3C247,23.1,244,11.1,238.7,0c11.8,0,23.6,0.1,35.3,0.4
	l3.3,12.8C280.9,27.7,280.9,42.9,277.4,57.4z"/>
<path class="st2" d="M379.9,48.6c-0.1,7.9,2.2,15.6,6.6,22.1H274l3.4-13.2c3.6-14.5,3.6-29.7-0.1-44.1l-3.3-13
	c32.2,0.4,64.4,4.1,95.9,10.9c8.8,2.1,17.6,4.5,26.3,7.4C385.3,24.6,378.9,36.3,379.9,48.6z"/>
<path class="st3" d="M474.5,69.8c-1,0.6-2.1,0.9-3.2,0.8h-84.7c-4.4-6.5-6.8-14.2-6.6-22.1c-1-12.3,5.4-23.9,16.2-29.7h0.1
	c10,3.2,19.8,7,29.4,11.4c17,7.9,37.1,17.7,48.2,33.4C475.2,65.5,476.3,68.4,474.5,69.8z"/>
<path class="st4" d="M282.8,105.9v61.8h-39.7c-30.5,0-57.1-20.9-64.3-50.5c22.2,2.3,56.3,2.6,72.4-19.7c6.4,5.4,14.4,8.4,22.8,8.4
	H282.8z"/>
<path class="st5" d="M251.2,97.5c-16.1,22.3-50.2,22-72.4,19.7c-1.3-5.1-2-10.4-1.9-15.7c0-17.6,7-34.4,19.4-46.8
	c8.4-8.4,18.9-14.4,30.4-17.3h0.1c0.7-0.2,1.4-0.4,2.1-0.5c0.3-0.1,0.6-0.2,1-0.3c4.4-0.9,8.8-1.3,13.2-1.3c1.5,0,3,0.1,4.4,0.3
	c-0.6,12.2-3.6,24.1-8.8,35C238.7,81,243.3,90.9,251.2,97.5z"/>
<path class="st2" d="M85.9,361.9h389c11,0,19.9,9.9,19.9,22.1s-8.9,22.1-19.9,22.1h-389c-11,0-19.9-9.9-19.9-22.1
	S74.9,361.9,85.9,361.9z"/>
<path class="st0" d="M221,88.3c0,4.9-4,8.8-8.8,8.8s-8.8-3.9-8.8-8.8s4-8.8,8.8-8.8S221,83.4,221,88.3z"/>
<path class="st5" d="M206.8,443.2c-4.1,0-7.6-2.8-8.6-6.7s0.9-8.1,4.5-9.9c11.7-6.1,18.1-19,16.1-32c-0.2-1.1-0.4-2.3-0.7-3.4
	c-4.4-16.4-21.3-26.2-37.7-21.8c-4.4,2.1-9.7,0.3-11.8-4.1s-0.3-9.7,4.1-11.8c1-0.5,2-0.9,3-1.2c12.4-3.4,25.7-1.6,36.8,4.8
	c11.2,6.4,19.3,17,22.7,29.4c0.5,1.8,0.8,3.6,1.1,5.4c3.2,20.4-7,40.6-25.4,50.2C209.6,442.8,208.2,443.2,206.8,443.2z"/>
<path class="st5" d="M259.8,436.8c-4.1,0-7.6-2.8-8.6-6.7c-1-3.9,0.9-8,4.5-9.9c11.7-6.1,18.1-19,16.1-32c-0.2-1.2-0.4-2.3-0.7-3.4
	c-4.4-16.4-21.3-26.1-37.7-21.8c-4.3,1.8-9.3,0-11.4-4.2c-2.1-4.2-0.5-9.3,3.6-11.6c0.9-0.5,1.9-0.9,2.9-1.1
	c12.4-3.4,25.7-1.7,36.9,4.7c11.2,6.4,19.4,17,22.8,29.5c0.5,1.8,0.9,3.6,1.1,5.4c3.2,20.4-7,40.6-25.4,50.2
	C262.6,436.5,261.2,436.8,259.8,436.8z"/>
<path class="st6" d="M159.2,335.4c-4.9,0-8.8-4-8.8-8.8v-10.8c-0.1-7.7,5-14.6,12.4-16.8c14.3-4.4,37.5-16.9,31.9-50.3
	c-0.7-4.7,2.6-9.2,7.3-10s9.2,2.3,10.1,7c8.3,49.9-31.7,66.3-44.1,70.1l0.1,10.7C168.1,331.5,164.1,335.4,159.2,335.4z"/>
<path class="st2" d="M495.6,239.3l-2.2,135.9c-0.1,3.8-10,6.8-22.2,6.6s-22-3.5-22-7.3l2.2-135.9c0.1-3.8,10-6.8,22.2-6.6
	C485.8,232.2,495.6,235.5,495.6,239.3z"/>
<path class="st2" d="M336.7,230.9h151.1c4.3,0,7.7,9.9,7.7,22.1s-3.5,22.1-7.7,22.1H336.7c-4.3,0-7.7-9.9-7.7-22.1
	C329,240.8,332.5,230.9,336.7,230.9z"/>
</svg>
