<?xml version="1.0" encoding="utf-8"?>
<!-- Generator: Adobe Illustrator 23.1.0, SVG Export Plug-In . SVG Version: 6.00 Build 0)  -->
<svg version="1.1" id="Layer_1" xmlns="http://www.w3.org/2000/svg" xmlns:xlink="http://www.w3.org/1999/xlink" x="0px" y="0px"
	 viewBox="0 0 512 512" style="enable-background:new 0 0 512 512;" xml:space="preserve">
<style type="text/css">
	.st0{fill:#2C3E50;}
	.st1{fill:#F29C1F;}
</style>
<path class="st0" d="M305.4,93c0.1,0,0.1,0,0.2,0c0.8,0.2,2.3,0.6,3.5,0.7c-0.3-0.4-0.6-0.8-1-0.9C307.1,92.4,306.2,92.5,305.4,93z"
	/>
<path class="st1" d="M285.7,70.7c-0.5,0-0.9-0.1-1.3-0.2c-0.2,0-0.4,0-0.6,0c-0.4,0-0.7,0-1-0.1c-0.3,0-0.7,0-1-0.1
	c0.6,0.1-1.2-0.1-1.4-0.1c-0.6,0-1.1,0-1.7,0s-1.2,0-1.8-0.1c0,0.1,0,0.1,0,0.2c0.3,0.6,0.6,1.2,0.9,1.8c0.1,0.2,0.2,0.3,0.2,0.5
	c0,0.1,0,0.1,0.1,0.2c1.5,3.2,2.7,6.5,3.4,10.1c1.3,6.1,1.5,12.4,2.4,18.6c0.2,1.8-0.4,3-1.4,3.8l111,51.9c8.5,4,18.1,4.7,26.7,1.9
	s15.4-8.7,19.1-16.6C439.4,142.5,320.8,87,285.7,70.7z"/>
</svg>
